<mxfile host="app.diagrams.net" modified="2024-05-14T18:20:30.565Z" agent="Mozilla/5.0 (X11; Linux x86_64) AppleWebKit/537.36 (KHTML, like Gecko) Chrome/124.0.0.0 Safari/537.36" etag="jsJ7nQoqXZU4jokvLq3v" version="24.4.0" type="device">
  <diagram name="Page-1" id="iH3sh0LT33CFh9EA447W">
    <mxGraphModel dx="1434" dy="776" grid="1" gridSize="10" guides="1" tooltips="1" connect="1" arrows="1" fold="1" page="1" pageScale="1" pageWidth="850" pageHeight="1100" math="0" shadow="0">
      <root>
        <mxCell id="0" />
        <mxCell id="1" parent="0" />
        <mxCell id="ge0IGM_E4acS-X_7jIjo-3" style="edgeStyle=orthogonalEdgeStyle;rounded=0;orthogonalLoop=1;jettySize=auto;html=1;exitX=0.5;exitY=1;exitDx=0;exitDy=0;entryX=0.5;entryY=0;entryDx=0;entryDy=0;" edge="1" parent="1" source="ge0IGM_E4acS-X_7jIjo-1" target="ge0IGM_E4acS-X_7jIjo-2">
          <mxGeometry relative="1" as="geometry" />
        </mxCell>
        <mxCell id="ge0IGM_E4acS-X_7jIjo-1" value="Start" style="rounded=1;whiteSpace=wrap;html=1;" vertex="1" parent="1">
          <mxGeometry x="365" y="20" width="120" height="60" as="geometry" />
        </mxCell>
        <mxCell id="ge0IGM_E4acS-X_7jIjo-5" style="edgeStyle=orthogonalEdgeStyle;rounded=0;orthogonalLoop=1;jettySize=auto;html=1;exitX=0.5;exitY=1;exitDx=0;exitDy=0;entryX=0.5;entryY=0;entryDx=0;entryDy=0;" edge="1" parent="1" source="ge0IGM_E4acS-X_7jIjo-2" target="ge0IGM_E4acS-X_7jIjo-4">
          <mxGeometry relative="1" as="geometry" />
        </mxCell>
        <mxCell id="ge0IGM_E4acS-X_7jIjo-2" value="Loop over each square on the chessboard" style="rounded=0;whiteSpace=wrap;html=1;" vertex="1" parent="1">
          <mxGeometry x="365" y="100" width="120" height="60" as="geometry" />
        </mxCell>
        <mxCell id="ge0IGM_E4acS-X_7jIjo-7" style="edgeStyle=orthogonalEdgeStyle;rounded=0;orthogonalLoop=1;jettySize=auto;html=1;exitX=0.5;exitY=1;exitDx=0;exitDy=0;entryX=0.5;entryY=0;entryDx=0;entryDy=0;" edge="1" parent="1" source="ge0IGM_E4acS-X_7jIjo-4" target="ge0IGM_E4acS-X_7jIjo-6">
          <mxGeometry relative="1" as="geometry" />
        </mxCell>
        <mxCell id="ge0IGM_E4acS-X_7jIjo-4" value="For each square, calculate the number of squares to the N, S, E, W, NW, NE, SW and SE" style="rounded=0;whiteSpace=wrap;html=1;" vertex="1" parent="1">
          <mxGeometry x="365" y="180" width="120" height="80" as="geometry" />
        </mxCell>
        <mxCell id="ge0IGM_E4acS-X_7jIjo-9" style="edgeStyle=orthogonalEdgeStyle;rounded=0;orthogonalLoop=1;jettySize=auto;html=1;exitX=0.5;exitY=1;exitDx=0;exitDy=0;entryX=0.5;entryY=0;entryDx=0;entryDy=0;" edge="1" parent="1" source="ge0IGM_E4acS-X_7jIjo-6" target="ge0IGM_E4acS-X_7jIjo-8">
          <mxGeometry relative="1" as="geometry" />
        </mxCell>
        <mxCell id="ge0IGM_E4acS-X_7jIjo-6" value="Store this value in an array as an array where the index of the element corresponds to the number of the square we are on" style="rounded=0;whiteSpace=wrap;html=1;" vertex="1" parent="1">
          <mxGeometry x="365" y="280" width="120" height="110" as="geometry" />
        </mxCell>
        <mxCell id="ge0IGM_E4acS-X_7jIjo-8" value="End" style="rounded=1;whiteSpace=wrap;html=1;" vertex="1" parent="1">
          <mxGeometry x="365" y="410" width="120" height="60" as="geometry" />
        </mxCell>
      </root>
    </mxGraphModel>
  </diagram>
</mxfile>
